<?xml version="1.0" encoding="UTF-8"?>
<svg id="Layer_1" xmlns="http://www.w3.org/2000/svg" version="1.1" viewBox="0 0 324.7 162.4">
  <!-- Generator: Adobe Illustrator 29.5.0, SVG Export Plug-In . SVG Version: 2.1.0 Build 137)  -->
  <defs>
    <style>
      .st0 {
        fill: #952453;
      }

      .st0, .st1, .st2, .st3, .st4, .st5, .st6, .st7, .st8, .st9, .st10, .st11, .st12, .st13, .st14, .st15, .st16, .st17, .st18, .st19, .st20, .st21, .st22, .st23, .st24, .st25 {
        fill-rule: evenodd;
      }

      .st1 {
        fill: #252120;
      }

      .st2 {
        opacity: .9;
      }

      .st2, .st3, .st4, .st5, .st6, .st7, .st8, .st9, .st10, .st11, .st12, .st13, .st14, .st15, .st16, .st17, .st18, .st19 {
        fill: #0092bc;
      }

      .st2, .st3, .st4, .st5, .st6, .st7, .st8, .st9, .st10, .st11, .st12, .st13, .st14, .st15, .st16, .st17, .st18, .st19, .st22 {
        isolation: isolate;
      }

      .st3 {
        opacity: .9;
      }

      .st4 {
        opacity: .9;
      }

      .st5 {
        opacity: .9;
      }

      .st6 {
        opacity: .9;
      }

      .st7 {
        opacity: .9;
      }

      .st8 {
        opacity: .9;
      }

      .st9 {
        opacity: .9;
      }

      .st10 {
        opacity: .9;
      }

      .st11 {
        opacity: .9;
      }

      .st12 {
        opacity: .9;
      }

      .st13 {
        opacity: .9;
      }

      .st14 {
        opacity: .9;
      }

      .st15 {
        opacity: 1;
      }

      .st16 {
        opacity: .9;
      }

      .st17 {
        opacity: .9;
      }

      .st18 {
        opacity: .9;
      }

      .st19 {
        opacity: .9;
      }

      .st20 {
        fill: #f2cf3e;
      }

      .st21 {
        fill: #b99f36;
      }

      .st22 {
        fill: #cd1b6a;
        opacity: 1;
      }

      .st23 {
        fill: #252020;
      }

      .st24 {
        fill: #5c502e;
      }

      .st25 {
        fill: #ac9335;
      }
    </style>
  </defs>
  <path class="st18" d="M193.7,29.9c1.2,0,2.3,0,3.5.1.3.1.6.3.8.6,0,4.3.2,8.6.2,13,1.3-1.9,2.7-3.8,4.1-5.7.9-.5,1.9-.7,2.9-.6,2-.5,2.7.2,2.1,2.1-1.5,2.1-3,4.2-4.3,6.4,1.9,3.2,3.9,6.4,5.9,9.6,1.1,2.1.4,3-2,2.5-1.1,0-2.1-.1-3-.6-1.6-2.4-3.1-4.8-4.5-7.3-.4.5-.8.9-1.2,1.4,0,1.9-.2,3.9-.2,5.8-.7.6-1.5.8-2.4.7-1.1.2-2-.1-2.7-.9-.2-8.7-.2-17.4,0-26.2.2-.4.4-.7.8-.9Z"/>
  <path class="st16" d="M211.7,29.9c1.2,0,2.3,0,3.5.1.4.1.7.4.8.8,0,7.1.2,14.2.2,21.3.1.4.4.7.8.8,3.5-.5,4.6.9,3.1,4.3-3.1,1.3-5.9.7-8.3-1.6l-.7-1.4c-.4-7.9-.5-15.7-.2-23.6.3-.3.5-.5.8-.7Z"/>
  <path class="st3" d="M163.1,30.6c1.2,0,2.5,0,3.7.1.2,0,.4.2.6.3,1.1,3.7-.2,5.2-4.1,4.3-.4-.2-.8-.5-1-.8-.2-1-.2-2,0-3,.2-.4.4-.7.8-.9Z"/>
  <path class="st14" d="M138.3,31.5c.9,0,1.9,0,2.8.1.6.2,1.1.6,1.5,1l9.7,15.3c0-5.2.2-10.5.2-15.7.7-.6,1.5-.8,2.4-.7.9,0,1.7.1,2.4.7.4,8.2.5,16.5.2,24.8-.2.2-.4.4-.6.6-1.1.4-2.1.4-3.2.2-.6-.2-1.1-.5-1.5-1l-9.7-15.3c0,5.1-.2,10.2-.2,15.3-.2.5-.5.8-1,1-1.1.2-2.2.2-3.2,0-.3-.1-.6-.3-.8-.6-.4-8.1-.5-16.2-.2-24.3.2-.7.6-1.2,1.3-1.4Z"/>
  <path class="st22" d="M49,34.3c7.8-.7,14.3,1.8,19.6,7.6,1.2,1.6,2.2,3.3,3,5.1,5.2-9.9,13.4-14.1,24.7-12.4,10.5,1.9,18.4,7.5,23.5,16.8,4,9.5,3.1,18.4-2.8,26.9-2.8,3.5-5.8,6.8-9.1,9.8-6.8,5.5-13.7,11-20.6,16.4-4.7,3.8-8.8,8.2-12.4,13.1-1.2,1.9-2.3,3.9-3.1,6-1.5-3.2-3.3-6.2-5.4-9-2.4-2.7-4.9-5.2-7.5-7.8-7-5.7-14-11.3-21.1-16.9-4.8-3.9-8.9-8.3-12.4-13.3-4.5-7.6-5.3-15.5-2.3-23.9,4.1-8.7,10.8-14.5,20-17.3,2-.6,4-1,6-1.3Z"/>
  <path class="st9" d="M179.8,37.3c3.5-.4,6.4.6,8.9,3,1,.9,1,1.8.1,2.8-.9.4-1.9.8-2.8,1.2-1-.6-2-1.3-3-2-3.1-.9-5,.2-5.7,3.4-.2,1.9,0,3.7.5,5.6,1.1,1.7,2.7,2.2,4.7,1.7,1.2-.7,2.4-1.3,3.6-2,4,1,4.4,2.7,1,5.2-4,2.3-8,2.3-12,0-2-1.6-3.1-3.6-3.4-6.1-.5-3.2,0-6.2,1.4-9,1.7-2.2,3.9-3.4,6.6-3.7Z"/>
  <path class="st12" d="M231.9,37.3c2.6,0,5,.6,7.2,2,.5.4.9.9,1.3,1.5.2,5.3.2,10.7,0,16-.2.5-.5.8-1,1-1.1.2-2.2.2-3.2,0-.8-.2-1.2-.7-1.3-1.5-1.4,1.3-3,1.9-5,1.9-4.7-.4-7.2-3.1-7.5-7.9-.7-4.5.7-8.3,4.1-11.2,1.7-1,3.6-1.6,5.6-1.7ZM230.7,42.1c1,0,2,0,3,.1.5.1,1,.3,1.4.7-.2,2.1-.3,4.2-.3,6.4-1.1,3.6-3.3,4.5-6.5,2.8-1.4-2.8-1.3-5.6.2-8.3.6-.8,1.3-1.3,2.2-1.6Z"/>
  <path class="st6" d="M163.1,37.5c1.2,0,2.5,0,3.7.1.4.2.7.6.8,1,.2,6,.2,12,0,18.1-.2.5-.5.8-1,1-1.1.2-2.2.2-3.2,0-.5-.2-.8-.5-1-1-.2-6.1-.2-12.2,0-18.3.2-.4.4-.7.8-.9Z"/>
  <path class="st9" d="M244.9,37.5c1.2,0,2.5,0,3.7.1.4.2.7.6.8,1,0,4,.2,8,.2,12,.6,2.6,2.1,3.3,4.5,2,1-.8,1.6-1.9,2-3.1,0-3.8.2-7.6.2-11.3.2-.2.4-.4.6-.6,1.2-.2,2.5-.2,3.7,0,.3.1.6.3.8.6.2,6.3.2,12.5,0,18.8-.2.4-.6.7-1,.8-1.1.2-2.2.2-3.2,0-.6-.3-.9-.8-1-1.5-1.1,1.3-2.6,1.9-4.3,1.9-4.9-.3-7.5-3-7.8-7.9-.2-3.9-.2-7.9,0-11.8.2-.4.4-.7.8-.9Z"/>
  <path class="st14" d="M269.2,37.5c2.5-.4,4.8.1,6.9,1.5,1.5,1.2,1.5,2.4,0,3.5-.6.3-1.2.6-1.9.8-1-.4-2-.9-2.9-1.4-.6,0-.9.3-1,.9.4.5.9,1,1.4,1.5,1.4.7,2.8,1.5,4.2,2.3,1.9,1.8,2.6,4,2,6.6-.6,2.6-2.3,4.1-5,4.5-2.6.4-5,0-7.2-1.6-.5-.6-.9-1.3-1.2-2,.5-1.1,1.3-1.8,2.5-2,1.1-.3,2,0,2.8.7,1.9.9,2.8.3,2.7-1.7-.3-.5-.6-.9-1-1.3-1.2-.8-2.4-1.5-3.7-2.1-3.1-2.3-3.7-5.1-1.7-8.5.9-.9,1.9-1.5,3.1-1.9Z"/>
  <path class="st23" d="M73.7,79.7c-.3-.3-.7-.5-1.3-.5-1.7.1-3.4.3-5,.5-.5,0-1,0-1.4.2-.6,1.1-.8,2.3-.8,3.5,2.6,2.2,3.4,5,2.4,8.2-6.9.2-13.9.2-20.8,0l-.3-.3c0-2-.2-4-.2-6-.8-4.6-1.7-9.3-2.5-13.9-.5-3.7-.5-7.4,0-11.1,2.2-5.5,6.2-8.8,12.2-9.6,2.2-.2,4.5-.2,6.7,0,3.2.5,6.3,1,9.5,1.5,1,0,2-.2,3-.6,1.3-.7,2.7-1.4,4.2-1.9,3.5,0,7,.3,10.4,1.2,1.4.2,2.8.2,4.2,0,.6-1.3,1.6-2,3-2.2.6,0,1.1.1,1.6.3.8.8,1.7,1.7,2.5,2.5,3.2-.4,5.8.6,7.9,3,.3.2.6.3.9.5,1.7.3,3.4.6,5.1.7.5.3.7.7.7,1.3-.5,1.4-1,2.7-1.6,4.1-.4.5-.9.9-1.5,1.3-.2.7-.7,1.3-1.3,1.7-2.4.4-4.7,1-6.9,1.9-1.3.7-2.6,1.4-3.9,2.1-2.3.8-4.5,1.7-6.7,2.8-.7.5-1.3,1-2,1.5-.2,3-.2,6,0,9,1.5,1.1,2.9,2.3,4.2,3.7,1.4,2,1.7,4.2,1,6.5-6.6.3-13.3.3-19.9.1-.5-.3-.7-.7-.8-1.3-.8-3.6-1.6-7.1-2.4-10.7Z"/>
  <path class="st13" d="M160.8,61.6c1.2,0,2.3,0,3.5.1.4.3.6.6.8,1,0,2.7.2,5.4.2,8.1,2.8-2.1,5.8-2.3,8.9-.8,2.2,1.5,3.4,3.5,3.6,6.1.2,4.2.2,8.5,0,12.7l-.3.3c-1.2.4-2.4.4-3.7.2-.4-.2-.8-.5-1-.8,0-3.9-.2-7.7-.2-11.6-.7-2.9-2.4-3.7-5.2-2.4-1,.8-1.6,1.9-2,3.1,0,3.7-.2,7.4-.5,11.1-.7.6-1.5.8-2.4.7-.9.1-1.7-.1-2.4-.7-.4-8.6-.5-17.3-.2-25.9.1-.6.5-1.1,1-1.4Z"/>
  <path class="st7" d="M192.8,61.6c1.1,0,2.2,0,3.2.1.5.2.8.5,1,1,0,7.1.2,14.2.2,21.3.4.4.8.6,1.4.7,1.8-.6,2.9,0,3.1,1.9,0,2.2-1.2,3.2-3.5,3-3.7,0-5.9-1.7-6.6-5.3-.2-7.2-.2-14.4,0-21.5.2-.5.6-.9,1-1.2Z"/>
  <path class="st18" d="M216.6,61.6c1.2,0,2.3,0,3.5.1.3.1.6.3.8.6.2,8.9.2,17.8,0,26.6-.2.3-.5.5-.8.6-1.1.2-2.2.2-3.2,0-.6-.3-1-.7-1.3-1.3-3.3,2.2-6.6,2.1-9.8-.1-2-2.3-3-4.9-2.8-8-.2-4.1,1.4-7.4,4.6-9.8,2.6-1.3,5.2-1.5,7.9-.6.2-2.4.3-4.8.3-7.2.3-.3.6-.6.8-.9ZM211.7,73.9c1.3,0,2.5,0,3.7.5.3,2.2.3,4.5.1,6.7-1.1,3.3-3.3,4.3-6.5,3-1.4-2.8-1.4-5.5,0-8.3.7-1,1.6-1.6,2.7-1.9Z"/>
  <path class="st4" d="M183,62.3c1.2,0,2.3,0,3.5.1.3.1.6.3.8.6.2,1.1.2,2.2,0,3.2,0,.2-.2.4-.3.6-1.3.4-2.6.4-3.9.2-.3-.1-.6-.3-.8-.6-.2-1.2-.2-2.3,0-3.5.3-.3.5-.5.8-.7Z"/>
  <path class="st9" d="M145.3,63.2c3.8-.4,7,.7,9.6,3.5,1.1,1.1,1.1,2.2-.1,3.1-1.9,1.3-3.4,1-4.6-.9-4.3-1.9-7.2-.7-8.7,3.8-.6,3.2-.4,6.4.7,9.5,2,2.8,4.6,3.5,7.8,2,.7-1,1.6-1.6,2.8-2,1.2.3,2.2.9,2.9,1.9.2.4.2.8,0,1.2-1.6,2.5-3.9,3.9-6.8,4.3-7.5,1-11.8-2.2-13.1-9.6-.7-4.3,0-8.4,1.9-12.3,1.9-2.7,4.5-4.2,7.8-4.4Z"/>
  <path class="st4" d="M281.7,63.2c2.8-.6,4.4.5,4.6,3.4-.2,2.4-1.2,4.3-3,5.8-1.2.6-2.2.3-2.8-.9.6-.9,1.2-1.9,1.6-2.9-.5-.3-1-.6-1.5-.9-.2-1.2-.2-2.5,0-3.7.3-.3.7-.5,1-.7Z"/>
  <path class="st20" d="M89.3,88.5v1.9h-11.8c-.8-4.3-1.7-8.5-2.8-12.7.5-1.9,1.1-3.7,1.7-5.6-.6-.5-1.2-.7-1.9-.5-1.2,2-1.9,4.2-2.2,6.5-2.2.1-4.5.2-6.7.3-1.4,1.6-2,3.5-1.7,5.7,1.7,1.1,2.7,2.6,2.9,4.6v1.6h-3.7c0-1.5-.5-2.9-1.3-4.2-.8-1.1-1.7-2.2-2.7-3.1,2.6-3.5,4.2-7.4,4.9-11.7,0-.8-.3-1.1-1-.9-.3,0-.6,0-.9.2-.9,4.8-2.8,9.1-5.9,12.9,1.7,1.3,3.2,2.9,4.3,4.7.3.7.4,1.4.3,2.1h-12.7c0-.5,0-1-.2-1.4-.6-6.2-1.6-12.4-2.9-18.5-.4-3.1-.4-6.2,0-9.3,1.5-4.7,4.6-7.7,9.4-8.9,3.5-.5,6.9-.5,10.4,0,2.5.5,5.1.9,7.6,1.3,1.2,0,2.4-.4,3.5-.8,1.1-.6,2.3-1.1,3.5-1.6.7,0,1.4,0,2.1-.1,2.6.2,5.1.5,7.6,1,1.9.2,3.7.2,5.6,0,.6-.9,1.4-1.7,2.3-2.2.3,0,.6.2.9.3.7,1,1.6,1.8,2.5,2.5,1.7.3,3.4.5,5.1.7,1.2.9,2.5,1.9,3.7,2.8,1.7.4,3.4.6,5.1.6-.4,1.2-.9,2.5-1.5,3.7-.4.2-.8.5-1.2.7-.1.6-.4,1.1-.8,1.5-1.8.5-3.7,1-5.6,1.4-1.9.8-3.8,1.7-5.6,2.8-2.9.9-5.6,2.2-8.1,3.7-.5.4-.9.9-1.3,1.5-.2,3.1-.2,6.2,0,9.3,0,.2.2.5.2.7,1.4,1.2,2.8,2.4,4.2,3.7,1,1.4,1.4,2.9,1.3,4.6h-4.4c.2-3.8-1.4-6.2-5.1-7.3-.4-.3-.6-.6-.8-1,0-1.8-.1-3.7-.1-5.4-.7-.2-1.4-.1-2,.3-.2,1.9-.2,3.7,0,5.6.2.9.7,1.7,1.5,2.2,1.4.5,2.7,1.4,3.8,2.4.3.4.4.9.3,1.4Z"/>
  <path class="st1" d="M104.1,54.9c1.5,0,2,.7,1.7,2.1-.8.9-1.7.9-2.5,0-.2-.9,0-1.6.8-2.1Z"/>
  <path class="st19" d="M184,69c1.2-.1,2.4.2,3.4.9.2,6.3.2,12.5,0,18.8-.2.4-.6.7-1,.8-1.1.2-2.2.2-3.2,0-.3-.1-.6-.3-.8-.6-.2-6.3-.2-12.7,0-19,.5-.5,1.1-.8,1.7-.9Z"/>
  <path class="st5" d="M227.5,69c1.1,0,2.2.1,3.2.6.4.6.5,1.3.6,2,1.1-1.9,2.8-2.7,5-2.4.6.2,1,.7,1.2,1.3-.3,1.4-1,2.6-2.1,3.6-1.1.2-2.2.5-3.2.9-.2.3-.4.6-.6.8-.3,4.3-.5,8.6-.5,13-.3.4-.6.6-1,.8-1.1.2-2.2.2-3.2,0-.5-.2-.8-.5-1-1-.2-6.1-.2-12.2,0-18.3,0-.2.2-.4.3-.6.5-.2,1-.4,1.4-.6Z"/>
  <path class="st8" d="M247.2,69c2.9-.2,5.3.7,7.3,2.8,1.9,5,.3,8.1-5,9.4-1.9.3-3.8.4-5.8.5.8,2.7,2.7,3.8,5.6,3.2,1-.3,1.8-.8,2.3-1.7.4-.3.8-.4,1.3-.5,4.2,1.2,4.4,3,.8,5.4-4.1,2.1-8.1,1.9-12-.5-2.3-2.2-3.4-4.9-3.2-8.1,0-6.1,2.8-9.6,8.8-10.5ZM247.4,73.4c1.1,0,2.1.2,3,.9.3.8.2,1.4-.5,2-2,1.1-4.1,1.3-6.3.6.5-2,1.7-3.1,3.7-3.5Z"/>
  <path class="st10" d="M260.4,69c1,0,2,0,3,.3.6.6.9,1.3.8,2.2,1.2-1.8,2.9-2.6,5.1-2.5,3.4,0,5.7,1.5,6.9,4.6.4,1.4.7,2.9.7,4.4.2,3.5.2,6.9,0,10.4-.1.3-.3.6-.6.8-1.2.4-2.4.4-3.7.2-.3-.1-.6-.3-.8-.6-.3-4.1-.5-8.2-.5-12.3-.3-1.6-1.2-2.5-2.9-2.5-2.4.2-3.8,1.5-4.3,3.9,0,3.7-.2,7.4-.5,11.1-1.5.6-3.1.6-4.6,0-.4-6.4-.5-12.8-.2-19.2.4-.5.9-.8,1.5-.9Z"/>
  <path class="st12" d="M291.9,69c2.4,0,4.4.7,6.1,2.3.6,1.1.4,2.1-.6,2.9-.6.3-1.2.6-1.9.8-1-.4-1.9-.8-2.8-1.4-.8.1-1,.6-.8,1.4l1,1c1.9.9,3.7,2,5.2,3.4,1.3,2.4,1.4,4.9.2,7.4-1,1.5-2.5,2.4-4.3,2.7-2.6.4-5,0-7.2-1.6-1.7-2.1-1.2-3.4,1.6-3.9.5-.2,1.1-.2,1.6,0,.6.6,1.3,1,2.2,1,1.5-.3,1.9-1.1,1.2-2.5l-1-1c-1.5-.8-3-1.6-4.4-2.5-1.7-1.6-2.3-3.6-1.7-5.9,1-2.4,2.8-3.7,5.4-3.9Z"/>
  <path class="st0" d="M73.7,79.7c-2.1,0-4.1,0-6.3,0,1.6-.2,3.3-.4,5-.5.5,0,1,.2,1.3.5Z"/>
  <path class="st21" d="M47.8,88.9c.2.4.3.9.2,1.4h12.7c-4.3.2-8.6.3-13,.2v-1.6Z"/>
  <path class="st25" d="M66.8,88.7c.2.6.3,1.2.2,1.9-1.4,0-2.7,0-3.9-.2h3.7v-1.6Z"/>
  <path class="st24" d="M89.3,88.5c.2.6.3,1.3.2,2.1-4.1,0-8.1,0-12-.2h11.8v-1.9Z"/>
  <path class="st7" d="M262.2,93.3c1.1,0,2.2,0,3.2.1.5.2.8.5,1,1,0,7.1.2,14.2.2,21.3.1.3.3.5.6.6,3.6-.7,4.7.7,3.4,4.1-.3.5-.7.7-1.3.8-2.9.5-5.3-.3-7.3-2.4-.3-.5-.5-1.1-.7-1.6-.4-7.6-.5-15.1-.2-22.7.2-.5.6-.9,1-1.2Z"/>
  <path class="st2" d="M218.2,94c1.2,0,2.5,0,3.7.1.7.6,1,1.4.9,2.3,0,.8-.2,1.5-.7,2.1-1.3.4-2.6.4-3.9.2-.2-.2-.5-.4-.7-.6-.3-1.1-.3-2.1-.1-3.2.2-.4.4-.7.8-.9Z"/>
  <path class="st16" d="M138.1,94.9c.9,0,1.7,0,2.5.1.5,0,1,.4,1.3.8.1,3.4.2,6.8.1,10.2h9c0-3.4,0-6.8.1-10.2.3-.5.7-.7,1.3-.8,1.1-.2,2.2-.1,3.2.2.3.2.5.5.6.8.2,8.1.2,16.2,0,24.3-.3.4-.6.6-1,.8-1.1.2-2.2.2-3.2,0-.3-.1-.6-.3-.8-.6-.1-3.5-.2-7.1-.1-10.7h-9c0,3.5,0,6.9-.1,10.4-.1.4-.4.7-.8.8-1.2.2-2.3.2-3.5,0-.4-.1-.7-.4-.8-.8-.2-8.2-.2-16.4,0-24.5.3-.5.8-.8,1.3-.9Z"/>
  <path class="st19" d="M229.1,96.8c1.3,0,2.5,0,3.7.3l.3.3c.1,1.2.2,2.3.1,3.5,1.1,0,2.2,0,3.2.2.4.5.5,1.1.5,1.7,0,.6-.1,1.2-.5,1.6-1.1.1-2.2.2-3.2.1-.1,3.8,0,7.6.3,11.3.4.3.8.5,1.3.5,1.9-.7,2.9,0,3,1.9,0,2.3-1,3.3-3.4,3-3.5.1-5.7-1.5-6.5-4.9-.1-3.9-.2-7.9-.1-11.8-2.8.4-3.6-.8-2.5-3.4.8-.3,1.7-.4,2.5-.3,0-1.1,0-2.2.1-3.2.2-.5.6-.8,1-.9Z"/>
  <path class="st19" d="M166.6,100.7c7.3-.5,11.1,3,11.3,10.3,0,6.5-3.2,9.9-9.6,10.3-4.7,0-7.7-2.2-9-6.7-.7-3.5-.4-6.9,1.2-10.2,1.6-2,3.6-3.3,6.1-3.7ZM167.1,105.4c2.7-.5,4.4.5,5,3.2.5,2.4.2,4.8-.9,6.9-1.4,1.3-3,1.5-4.7.6-1.4-1.4-2-3.1-1.9-5.1,0-1.6.3-3.1,1-4.5.5-.5,1-.9,1.5-1.2Z"/>
  <path class="st15" d="M205.3,100.7c4.9.3,7.6,2.8,8.2,7.6.7,9.1-3.5,13.4-12.6,13,0,2.2,0,4.3-.1,6.5-.7.8-1.6,1.1-2.7.9-.9.1-1.7-.1-2.4-.7-.2-8.8-.2-17.6,0-26.4l.6-.6c1.2-.2,2.5-.2,3.7,0,.7.4,1,.9,1,1.7,1.2-1.2,2.6-1.9,4.3-2.1ZM204.1,105.8c2.1-.3,3.5.5,4.1,2.5.6,2.4.3,4.6-.9,6.7-1.9,1.7-4,2-6.3.9-.2-2.2-.2-4.3,0-6.5.4-1.8,1.5-3,3.1-3.7Z"/>
  <path class="st10" d="M249.5,100.7c2.5,0,4.8.7,6.9,2,.5.5.9,1,1.3,1.5.2,5.3.2,10.7,0,16-.2.5-.5.8-1,1-1.2.2-2.3.2-3.5,0-.6-.3-.9-.8-1-1.5-.9,1-2,1.6-3.4,1.7-5.5.5-8.6-2-9.1-7.5-.7-4.6.6-8.4,4.1-11.5,1.8-1,3.8-1.6,5.8-1.7ZM248.3,105.6c1.3-.1,2.5,0,3.7.5.3,2.3.3,4.6.1,6.9-1.2,3.4-3.4,4.2-6.5,2.5-1.4-2.8-1.3-5.6.2-8.3.7-.8,1.5-1.3,2.4-1.6Z"/>
  <path class="st11" d="M184,101c2.9-.5,5.4.3,7.5,2.3.5,1,.4,1.9-.6,2.7-.6.4-1.3.6-2,.8-.9-.5-1.9-.9-2.8-1.4-1.3.4-1.4,1.1-.3,2,1.8,1,3.6,2.1,5.3,3.2,1.8,2.5,2.1,5.1.8,8-1,1.5-2.5,2.4-4.3,2.7-3,.6-5.6-.2-7.8-2.2-.9-1-.8-1.9.3-2.7,1.1-.7,2.2-.9,3.5-.7.5.2.8.5,1.2.9,2.3.3,3-.6,2-2.7-1.5-1.2-3.2-2.3-5-3.1-2.6-2.2-3-4.8-1.3-7.8.9-1,2.1-1.7,3.4-2.1Z"/>
  <path class="st17" d="M218.2,101c1.2,0,2.5,0,3.7.1l.6.6c.2,6.3.2,12.7,0,19-.2.3-.5.5-.8.6-1.1.2-2.2.2-3.2,0-.4-.2-.8-.5-1-.8-.2-6.2-.2-12.3,0-18.5.2-.4.4-.7.8-.9Z"/>
</svg>